<svg clip-rule="evenodd" fill-rule="evenodd" stroke-linejoin="round" stroke-miterlimit="2" viewBox="0 0 365 275" xmlns="http://www.w3.org/2000/svg"><path d="m242.478 46.301c0 1.55-.84 2.841-2.066 3.616l-70.516 40.747c-2.196 1.227-4.779 1.937-7.491 1.937-1.356 0-2.647-.194-3.874-.517l-21.052-5.424 64.446-37.195c1.098-.581 1.873-1.743 1.873-3.099s-.775-2.519-1.873-3.1l-64.51-37.26 21.051-5.424c1.227-.323 2.583-.516 3.875-.516 2.712 0 5.23.71 7.49 1.937l70.581 40.682c1.226.71 2.066 2.066 2.066 3.616" fill="#0071bc"/><path d="m139.223 21.634c13.625 0 24.668 11.042 24.668 24.667s-11.043 24.668-24.668 24.668-24.668-11.043-24.668-24.668 11.043-24.667 24.668-24.667" fill="#f15a22"/><path d="m300.337 245.191c0 .129-.065.258-.194.517-.129.193-.194.387-.194.516-.645 0-.904.259-.904.646-.193 0-.452 0-.904-.065-.387 0-1.42.065-1.679.065-.193-1.421-3.939.904-4.391 2.066-.129.259 0 1.292.323 1.808.258.388.388.13.452.323.581 1.486 3.616 4.65 2.841 6.329-.064.129-.064-.065-.129 0 .194.129-1.55 1.679-2.002 1.937-1.097.581.775.129-.129.387l-5.23 1.744-.711.129c.065 0-.322-.194-1.549-.129h-.517c-.194 0-.258.258-.452.194-.258-.065-.581-.582-.904-1.227-.194-.452-.387-.904-.517-1.292l.388-.387c.258 0 .452 0 1.937.258l.388.517.904.193c.322.065 4.455-1.42 4.972-1.679l.129-.258c.517-.71.71-.452.452-1.485-.065-.323-.452-2.066-1.808-3.487-.581-.84-1.033-1.098-1.421-1.679-.129-.194-.387-1.098-.452-1.356 0-.323.129-.775.581-1.421.388-.71 1.034-1.162 2.39-2.066.839-.581 1.291-.775 2.324-1.292.323-.193.775-.516 2.131-1.162.129-.065.129-.129 0-.194h2.325c.323 0 .646.194 1.033.646.323.323.517.646.517.904m-35.516 5.618c2.454-3.81 3.551-6.07 3.164-6.78.581-.388 1.098-.517 1.679-.517.194 0 .516.065.904.194.387.129.71.194.904.194-.065.193-.323.452-.71.774.064.13.193.13.387.065-1.421 3.035-7.684 9.88-8.136 12.657-.194.581 1.356 1.42 1.808.71.323-.323 2.066-1.485 2.841-1.937s1.162-.646 1.098-.646c0-.065 2.066-1.098 3.035-2.389.581 0 1.42-1.292 2.131-1.938.71-.581 1.162-.904 1.356-.904.258 0 .581-.645 2.002-2.001 1.356-1.356 2.131-2.067 2.389-2.196h1.033c.388 0 .775.258 1.098.904.323.581.775.904 1.291.969-.645.387-1.42.968-2.389 1.808.065.516-.258 1.098-1.033 1.808l.129.258c0 .452-.258 1.033-.904 1.937-.581.84-1.873 2.002-1.873 2.583 0 .194.065.517.13.775.064.259.129 1.873 1.033 2.325-.775.904-2.067 1.356-3.229 1.485-1.227-.516-1.873-1.033-1.873-1.614 0 .064 1.227-3.293 3.229-6.651l-.323-.259c-1.227.775-2.131 2.325-3.293 3.552-1.033 1.033-2.389 1.744-3.681 2.648-1.808 1.226-4.585 2.583-6.974 2.583-4.133-3.1.71-7.297 2.777-10.397m-73.68-2.195c.065-.259-.065-.388-.323-.388-.646 0-2.002-.065-3.874 1.162-1.808 1.227-2.777 2.002-2.906 2.39l-.452-.129c-2.519 1.937-4.779 4.584-7.039 6.586l.323.323c-.323.129-.452.517-.452 1.033 0 .323.065.646.258 1.098 1.034-1.033 1.744-1.55 2.325-1.55.517 0 .71.065.581.258 1.744-1.162 4.068-2.905 6.91-5.295.323-.452.904-1.162 1.743-2.131.323 0 .904-.516 1.679-1.614.84-1.162 1.227-1.743 1.227-1.743m7.297-4.456c-.452.646-.775 1.55-1.033 2.712-1.227.969-3.487 3.81-6.781 8.459l.323.129c-.516.194-1.097.904-1.614 2.131-.581 1.227-1.098 1.938-1.744 2.26l.582.13c-1.163 1.227-2.39 2.389-2.39 3.551 0 .129.129.323.388.452l-.969.388.258.323c-.129.064-.129.258 0 .581l-.581-.129c-.258.258-1.679 1.291-2.712 2.389-1.485 1.743-4.391 3.035-4.843 3.358 0-.065-.065-.065-.129-.065-.323 0-.452.258-.452.711 0 .839-.84 1.162-.775.904-.581.904-4.197 1.808-4.649 1.872-.84.194-1.744.452-2.971.452-.129-.645-.064-.645-.516-.258-1.292-1.485-1.421-2.712 0-2.389 2.131.452 9.621-2.648 9.88-5.037l.452.258c.839-1.937 3.293-1.291 5.424-4.972l-.581-.129c.129-.775 1.227-1.873 2.001-3.358.259-.194.323-.323.323-.388-.064-.129-.129-.193-.258-.258-1.291.84-2.648 1.679-3.939 2.519-1.937 1.226-3.229 1.872-3.939 1.872-1.098 0-1.292.129-.71.388-.969-.259-2.519-.711-4.521-1.421.388-.323.646-.517.711-.452 0-.258-.065-.452-.194-.581s-.194-.194-.194-.258c.065-.065.129-.259.259-.517.064-.258.258-.71.452-1.421.516-.645 1.291-1.614 2.195-2.906l.581.194c1.033-1.098 2.648-3.229 5.295-5.037 2.648-1.872 4.65-2.906 5.618-3.939.065 0 1.421-.516 4.133-2.066 1.744-1.033 3.293-1.485 4.585-1.485.258 0 .71.129 1.485.452.904.258 1.356.452 1.55.581m-22.989 2.325c0-.13-.322.322-1.033 1.42-.129.969-1.55 3.487-4.262 7.62-2.454 3.81-3.551 6.07-3.228 6.78-.517.388-1.098.582-1.679.582-.194 0-.517-.065-.904-.194-.452-.129-.711-.194-.969-.194.065-.194.323-.452.71-.775-.064-.129-.193-.129-.387-.064 1.55-2.519 3.616-6.329 6.199-11.43h.129c.065 0 .129-.129.129-.323.065-.194.065-.258 0-.258l-.323.193h-.322c-.13.065-.259.13-.388.194-.323.323-.904.71-1.679 1.162-.775.453-1.162.646-1.098.646 0 .065.065.129.13.259-1.098.129-2.131.839-3.1 2.066-.517 0-1.162.323-1.873.904-.71.581-1.162.904-1.42.904-.259 0-1.034.646-2.454 2.002-1.356 1.356-2.131 2.066-2.389 2.195h-1.034c-.452 0-.775-.323-1.097-.839-.323-.581-.711-.904-1.292-1.033.646-.388 1.421-.969 2.389-1.808-.064-.517.259-1.098 1.034-1.808l-.13-.259c0-.387.323-1.033.904-1.937.582-.839.904-1.55.904-2.066 0-.259 0-.517-.129-.775-.064-.194 0-.581.129-1.033.775-.905 1.744-1.357 2.906-1.486 1.227.517 1.873 1.033 1.873 1.615 0-.065-.969 1.549-2.97 4.907l.322.259c2.713-1.679 6.652-4.327 11.882-7.878v-.13c0-.258-.064-.258-.194 0 .194-.064.452-.193.711-.452.258-.258.452-.452.775-.452.193 0 .516 0 .904.065.387.064.645.064.904.064.904.84 1.42 1.292 1.42 1.357m-17.047-10.462c-.259.259-.646.646-1.034 1.227h-2.583c-.193 0-.452-.258-.774-.775-.323-.516-.517-.774-.582-.839.323-.323.711-.646 1.163-.969.387-.322.904-.516 1.42-.516.582 0 1.356.646 2.39 1.872m-5.812 9.17c-1.679 2.131-3.293 4.197-4.843 6.264-2.519 3.099-3.745 5.166-3.745 6.134v1.873c-.259.258-.323.387-.194.581-.517-.064-1.033.129-1.55.581-.452-.193-1.033-.452-1.873-.775.452-1.549 1.55-3.809 3.165-6.909.387-.452.904-1.098 1.549-2.131v-.065c0-.193.388-.774 1.098-1.808.71-.968 1.033-1.614.904-1.937.71-.194 1.033-.387 1.033-.646 0-.516-.323-.968-1.033-1.356.775-.387 1.808-.968 3.1-1.808.258 0 .645.065 1.033.194.387.129.646.452.775.969.129.645.323.839.581.839m-10.526-.904c0 .839-1.679 3.81-5.101 8.911-.452-.129-1.227-.193-2.196-.193 0-.13-.064-.194-.064-.323v-.323c0-.129 0-.194.064-.258.259-.323.388-.711.388-1.227 0-.194.129-.323.323-.323l.323.129c.064-.065.193-.646.322-1.679.13-.71.517-1.162 1.163-1.292l-.194-.71c-.775.323-1.55.646-2.389 1.033-1.421.711-2.196 1.227-2.196 1.55v.194c-.452.129-1.033.581-1.743 1.227-1.163.581-2.454 1.808-4.004 3.551-1.679 1.938-2.325 3.294-1.937 4.069-.258.129-.775.516-1.485 1.162-.388.387-1.292.71-2.648 1.033 0-.194-.258-.452-.71-.646-.452-.193-.711-.387-.711-.581 0 .129.259-.258.711-1.098-.065-.452.71-1.872 2.26-4.197 1.614-2.325 2.389-4.004 2.389-4.908 0-.193-.064-.452-.194-.71-.129-.258-.193-.517-.193-.646.71-.904 1.356-1.42 2.066-1.42 1.679 0 2.583.258 2.777.839.323.84.581 1.292.71 1.421.775-.711 2.389-1.744 4.843-3.229s4.068-2.195 4.779-2.195h1.485c.129 0 .194.064.194.258s.193.258.516.323c.259-.065.452.064.452.258m-22.213.904c-1.679 2.131-3.294 4.197-4.844 6.264-2.453 3.099-3.745 5.166-3.745 6.134v1.873c-.258.258-.323.387-.194.581-.452-.064-.968.129-1.549.581-.388-.193-1.034-.452-1.873-.775.452-1.549 1.55-3.809 3.229-6.909.387-.452.904-1.098 1.55-2.131v-.065c0-.193.322-.774 1.097-1.808.711-.968 1.033-1.614.904-1.937.711-.194 1.034-.387 1.034-.646 0-.516-.323-.968-1.034-1.356.775-.387 1.808-.968 3.1-1.808.258 0 .646.065 1.033.194.388.129.646.452.775.969.065.645.258.839.517.839m5.811-9.17c-.258.259-.645.646-1.033 1.227h-2.583c-.194 0-.452-.258-.775-.775-.323-.516-.516-.774-.581-.839.323-.323.71-.646 1.162-.969.388-.322.904-.516 1.421-.516s1.356.646 2.389 1.872m-54.307 10.462c0-.13-.323.322-1.033 1.42-.129.969-1.55 3.487-4.262 7.62-2.454 3.81-3.552 6.07-3.229 6.78-.516.388-1.098.582-1.679.582-.194 0-.516-.065-.968-.194-.388-.129-.711-.194-.904-.194.064-.194.322-.452.71-.775-.065-.129-.194-.129-.388-.064 1.486-2.519 3.552-6.329 6.2-11.43h.129c.064 0 .129-.129.129-.323.064-.194.064-.258 0-.258l-.323.193h-.323c-.129.065-.258.13-.387.194-.323.323-.904.71-1.679 1.162-.775.453-1.163.646-1.098.646 0 .065 0 .129.065.259-1.098.129-2.131.839-3.1 2.066-.517 0-1.162.323-1.873.904-.71.581-1.162.904-1.42.904-.259 0-1.034.646-2.454 2.002-1.356 1.356-2.196 2.066-2.389 2.195h-1.034c-.387 0-.775-.323-1.097-.839-.323-.581-.711-.904-1.292-1.033.646-.388 1.421-.969 2.389-1.808-.064-.517.259-1.098 1.034-1.808l-.13-.259c0-.387.323-1.033.904-1.937.582-.839.905-1.55.905-2.066 0-.259-.065-.517-.13-.775-.064-.194 0-.581.13-1.033.774-.905 1.743-1.357 2.905-1.486 1.227.517 1.873 1.033 1.873 1.615 0-.065-1.033 1.549-3.035 4.907l.323.259c2.712-1.679 6.651-4.327 11.882-7.878v-.13c0-.258-.065-.258-.194 0 .194-.064.452-.193.646-.452.258-.258.516-.452.775-.452.193 0 .516 0 .904.065.387.064.645.064.904.064 1.097.84 1.614 1.292 1.614 1.357m-14.723-17.306c0 .322-.323.839-1.033 1.614-.711.775-1.292 1.227-1.679 1.485l.581.194c-2.583 3.681-4.908 7.943-7.039 12.786-.516.452-1.097 1.42-1.808 2.776v.323c0 .323-.129.711-.452 1.227-.258.517-.452.84-.452.969-.775 1.485-3.035 4.972-4.649 8.007l.775.452v.839l-1.679 1.938c-.452.645-1.485.904-3.035.968-.258 0-.388-.064-.581-.258-.194-.129-.259-.194-.323-.129 0-.646.258-1.485.775-2.454.645-1.227 1.033-2.002 1.097-2.389l.582.258c0-.71 1.42-2.712 2.001-3.745.582-1.033.904-1.679.904-1.873.388-.904 1.034-2.002 2.002-3.293 0-.452.259-1.098.775-1.808.517-.711.775-1.421.775-2.131.452-.129.84-.323 1.162-.452-.129-.065-.258-.129-.258-.323 0-.388.194-.969.581-1.679.388-.71.581-1.227.581-1.55 1.163-1.614 2.131-3.164 2.777-4.52.388-1.162 1.033-2.906 2.002-5.231.387-.258.581-.516.646-.839l-.259-.388v-.71c.452-.064.775-.129 1.034-.323l-.582-.129c.84-.581 1.679-.839 2.648-.839h.194c0 .064-.065.129-.129.193-.065.065-.13.129-.13.129 0 .065 0 .065.13.065 1.356-.194 2.066.129 2.066.84m29.769 15.82c0 .129-.065.259-.194.517-.194.194-.194.387-.194.517-.645 0-.904.258-.904.645-.193 0-.516 0-.904-.064-.387 0-1.42.064-1.679.064-.193-1.42-3.939.904-4.391 2.067-.129.258 0 1.291.323 1.808.259.387.388.129.452.323.646 1.485 3.616 4.649 2.842 6.328-.065.129 0-.065-.13 0 .13.194-1.549 1.743-2.001 1.937-1.098.646.774.129-.13.388l-5.23 1.743-.71.194c.064 0-.323-.194-1.55-.194h-.581c-.194 0-.259.194-.452.194-.259-.065-.582-.581-.904-1.292-.194-.452-.388-.904-.517-1.291l.387-.452c.259 0 .452 0 1.938.258l.387.517.904.193c.323.065 4.456-1.42 4.972-1.678l.13-.259c.516-.71.645-.387.452-1.485-.065-.323-.452-2.066-1.809-3.552-.581-.839-1.033-1.097-1.42-1.679-.129-.193-.388-1.033-.452-1.356 0-.322.129-.774.581-1.42.387-.711 1.033-1.163 2.389-2.067.84-.581 1.292-.775 2.325-1.291.323-.194.775-.517 2.131-1.162.129-.065.129-.13 0-.194.258 0 .646 0 1.098-.065h1.227c.322 0 .645.194 1.033.646.387.581.581.904.581 1.162m20.276 6.587c-2.001 4.068-7.232 6.651-9.363 8.395-.581.452-1.098.645-1.614.645-.194 0-.582.13-1.098.388-.517.258-.84.387-1.033.387-.194 0-.581.129-1.098.323s-.904.323-1.162.323c-.259 0-.323 0-.323.065l.193.193c-.452-.064-1.42.259-2.97-.387.065-.194.129-.517.194-.969l-.517-.258c-.064.065-.258.452-.516 1.162-.259.711-.388 1.098-.388 1.163-.71 1.162-1.421 2.26-2.131 3.422-.839 1.356-2.131 4.262-2.131 5.36-.516.258-1.291 1.227-2.389 2.841-.065-.064-.452-.064-1.227-.064.065-.065.194-.065.323-.194 0-.065-.129-.065-.452-.065-.258 0-.581-.064-.84-.193 0-.065-.064-.259-.129-.453-.064-.193-.129-.387-.129-.516 0-.517.71-1.227 2.131-2.196l-.387-.129c.71-.775 2.453-3.681 3.228-5.166.969-1.679 1.679-2.841 2.131-3.487 0-.516.969-2.906 2.777-7.103.581-.258 1.162-1.098 1.743-2.518.905-2.196 1.227-3.358 2.002-5.554h.194c.129 0 .194-.452.194-1.421.581-.322 1.162-.581 1.679-.839.516-.258 1.227-.387 2.002-.387.581.452 1.872-.13 3.809.258 1.679.323 2.648.839 2.971 1.421 2.195 1.162 3.874 2.324 3.874 4.391 0 .516.194.904.452 1.162m-3.228-.452c0-1.162-.84-2.196-2.519-3.164-1.679-1.033-3.358-.581-4.907-.581-.646 0-.969.129-1.034.452.065.064.129.193.129.322 0 1.615-3.228 5.037-4.068 6.845-1.097 2.325-1.872 3.681-2.389 4.004.065.129.194.194.323.194-.388.387-.581.71-.581 1.033l.193.452c.194-.452.582-.71 1.098-.84.646.065.969-.387 2.131-.129l.711.259-.194-.194.258-.129c.194 0 .517-.129.969-.452-.065-.065-.065 0-.065.258h.194c.71-.194 1.485-.452 2.325-.775.322-.452.839-.452 2.131-1.162 1.614-.904 3.809-3.1 4.068-3.229l-.323-.323c1.614-1.356 1.55-1.743 1.55-2.841m136.317-18.275c-1.163.904-.969.646-.452 1.486-.904.452-1.292 1.485-1.292 3.228l-.904 1.163c0 1.033-.646 2.066-2.066 3.164l.775.387c-.969.517-2.067 2.26-3.1 5.037-1.033 2.712-1.55 4.068-1.808 4.133.129.064.452.194.775.387-.517.129-1.033.84-1.421 2.002-.387.323-.581.775-.581 1.227 0 .646.194 1.098.646 1.291-.323.194-.646.388-1.098.646l.517.323c-1.292 1.808-1.938 3.164-1.938 4.068-.129.646-.645 1.421-1.485 2.196-.904.064-1.614.452-1.937 1.033-.323-.517-.969-.904-1.873-1.162v-1.163c1.808-2.324 2.712-3.939 2.712-4.778 2.648-4.327 4.456-8.266 5.36-11.817l.84-.259c.064 0 .064 0 .064-.064 0-.194-.194-.452-.516-.84.516-.129.968-.516 1.42-1.614.388-.904.452-1.55.323-2.002.904-.516 1.485-1.485 1.873-2.712.194-.969.516-2.002.839-3.035.711-.517.904-.71 1.421-2.389l-1.679.129c-.904-.194-2.518-.194-4.908-.065-.129.065-.323.129-.516.129-.452.13-1.098.194-2.002.259-.904 0-1.421.064-1.55.129-2.583.129-7.684.452-13.044.646l-.323.775-1.291.387-3.617-.387c-1.097-.065-2.195-.711-2.776-1.938-.065-.193-.065-.387.129-.581.129-.194.194-.323.064-.323.969-.323 2.454-.516 4.133-.581 2.131-.065 3.487-.194 4.068-.258l-.064.516c1.098-.323 2.454-.516 4.262-.581 1.808-.064 4.068-.194 4.391-.323 1.485-.129 3.422-.129 5.812 0 .71-.193 1.743-.323 3.035-.258 1.356.065 2.518-.065 3.487-.387.452.258.775.452 1.162.645 0-.129.129-.258.387-.323.452-.129 1.163-.258 2.067-.258l.064-.129c.194-.71 1.163-2.648 2.196-2.389 1.614.387.904 1.227.194 2.389.323-.065.645-.129.839-.194 2.971.129 5.618.129 7.943 0 1.937-.258 6.845-.839 10.655-1.162.516.129 1.033.194 1.485.129l.516-.387 1.034-.323c.258.323.516.452.839.646v-.517c1.227.323 2.067.904 2.454 1.614l.194.259c-.065 0-.194.129-.452 0h-.194c-.065 0 0 0 0 .064.581 1.033.194 1.744-.904 2.002-.452.129-1.421.129-2.906-.065-1.485-.193-2.325-.322-2.777-.516v.452c-5.359-.258-12.656.064-19.566.516zm64.897 24.28c1.486-2.647 2.002-4.972 2.454-6.974l.065-.064c-.065-.065-.259-.323-.388-.517.581-.194.84-.129.904-.194.388-.387.452-.839.452-1.227 0-.193-.129-.322-.129-.452.452-.258.969-.71 1.163-1.42.129-.517.258-1.227.452-1.744.452-.258.774-1.033 1.033-2.066.129-.194.064-.065.193-.129.065-.323.13-.904.259-.969-.517-.129-5.683-.194-6.716-1.679.258-1.485 3.164-.452 4.133-1.162.258-.129 2.389.323 2.841.387.452.065.646.065.904.065.452-.904.775-2.067 1.356-3.939.452-.388 0-.065 1.033-2.777.904-2.389 1.679-4.004 2.454-4.262.194-.129.775-.387 1.098-.387s.969.258 1.162.645c.129.259.517 1.227.646 1.486-.71.904-1.291 2.066-2.002 2.97-.839 1.098-1.291 2.454-2.002 3.681v.064c-.258.517-.452 1.227-.516 1.809l-.452.322h.064l.13-.064c.387-.065.452-.065 1.162-.194.258 0 .581 0 .969.065.452.064.516.064.645.064l.065-.064c.064 0 .258-.065.323-.065h.323c.193 0 .387 0 .645.129l.065-.064c.064 0 .129-.065.194-.065h.258l.129.065c.065-.065.065-.065.194-.065.258 0 .775 0 1.291-.064h1.098c.452 0 .969.387.904 1.549-.258.065-.452.065-.452.129 0 .13.065.194 0 .969l-.969-.775c-.387.065-.839.129-1.614.129-.129 0-.258.13-.516.194-.259.129-.646.194-.775.194-.065 0-.323-.065-.517-.129v.129h-1.743l-.13.064c-.129.065-.387.194-.581.194-.194.129-.387 0-.646-.064-.322.064-.387.064-.71.193 0 0-.258.129-.516.129-.388.194-.388.194-.775.775-.323.581-.259.711-.13 1.034-.968.774-.71.774-.322 1.42-.582.258-.969.323-.969 1.679l-.452.646c-.065.581-.387 1.098-.71 1.42l.645.323c-.516.323-1.227.259-2.066 2.454-.517 1.485-.71 2.26-.839 2.389.064 0 .904.517 1.097.646-.064.129-.581.194-.968.259-.129 0-.323 0-.323.064-.194.129-.259.452-.388.84-.193.193-.258.129-.258.387 0 .194 0 .065.065.194.064.064.516.193.775.516 0 .259-.775 1.163-.259 2.454.065.258.969 1.033 1.873 1.485-.775.904-4.068 1.938-5.231 2.002-1.227-.516-1.872-1.033-1.872-1.614-.065.258.452-1.163 1.42-3.423m-44.362-11.946c0 .84-1.679 3.81-5.037 8.911-.517-.064-1.227-.193-2.196-.193 0-.13 0-.194-.064-.388v-.258c0-.129 0-.258.064-.258.258-.323.452-.775.452-1.227 0-.259.065-.323.323-.323l.323.129c.064-.065.194-.581.323-1.679.129-.71.516-1.162 1.098-1.356l-.194-.71c-.775.322-1.55.71-2.389 1.033-1.486.71-2.196 1.227-2.196 1.55v.193c-.452.129-1.033.581-1.743 1.292-1.163.581-2.454 1.808-3.94 3.551-1.678 1.873-2.324 3.229-1.937 4.069-.258.129-.775.516-1.55 1.162-.387.387-1.291.71-2.647 1.033 0-.258-.258-.452-.71-.646-.452-.193-.711-.387-.711-.581 0 .129.259-.258.711-1.098-.065-.452.71-1.872 2.26-4.197 1.614-2.325 2.389-4.004 2.389-4.908 0-.193-.065-.452-.194-.71-.129-.323-.194-.516-.194-.646.711-.904 1.357-1.42 2.067-1.42 1.614 0 2.583.258 2.777.839.322.84.581 1.292.71 1.421.775-.71 2.325-1.808 4.778-3.229 2.454-1.485 4.069-2.195 4.779-2.195h1.421c.129 0 .193.064.193.258 0 .129.194.258.452.323.452-.065.582.064.582.258" fill="#231f20"/><g fill="#f15a22"><path d="m70.58 119.012h-19.437v7.749h19.114l.904-.129 1.163-.194.968-.194.323-.129.775-.387.775-.517.517-.516.064-.129.323-.969v-1.227l-.387-1.162-.13-.194-.516-.517-.775-.516-.775-.388-.323-.129-.969-.194-1.162-.193zm-19.437 17.887v8.008h19.631l.452-.065 1.162-.194.969-.193.323-.13.775-.387.774-.517.517-.516.129-.194.388-1.162v-1.033l-.065-.259-.323-.968-.258-.388-.388-.387-.774-.517-.775-.387-.323-.13-.969-.193-1.162-.194-.452-.065-.388-.064h-19.243zm22.924-27.961.581.065 3.1.388 3.164.452 1.162.193 1.163.388.968.387.517.194 1.356.581.904.517 1.55 1.033 1.291 1.291.259.323.775 1.163.581 1.162.193.452.517 1.808.194 1.356.064.517v1.937l-.064.258-.129.904-.388 1.163-.581 1.162-.775 1.162-.258.323-.969.969-1.55 1.291-.452.323-1.356.775-.645.323 1.162.581 1.808 1.033 1.162.969 1.292 1.291.775 1.163.581 1.162.129.388.258.904.194 1.356v1.808l-.258 1.808v.452l-.065.452-.516 1.55-.582 1.162-.387.646-1.292 1.614-.322.323-1.292 1.033-.775.517-1.162.581-.969.387-2.712.904-.904.259-.904.129-.387.129-.904.129-3.617.452-.581.065h-39.067v-46.236h37.582z"/><path d="m232.663 134.962h14.4l-7.297-13.625zm-10.784 20.083h-16.467l27.251-46.236h15.045l27.638 46.236h-17.112l-5.682-9.945h-25.314z"/><path d="m118.107 134.962h14.4l-7.297-13.625zm-10.784 20.083h-16.466l27.25-46.236h15.046l27.638 46.236h-17.112l-5.683-9.945h-25.313z"/><path d="m181.39 155.045h-18.92v-10.138h19.308l.452-.065h.452l.452-.065h.452l.452-.064 1.937-.323.323-.065.387-.064.323-.065.323-.129.258-.064.323-.13.259-.064.516-.258.258-.065.388-.258.258-.13.194-.129.129-.129.194-.129.775-.775.064-.194.129-.129.13-.193.064-.194.129-.194.065-.194.129-.193.065-.194.129-.194.129-.516.065-.194.064-.258.065-.323.129-.517.194-.969v-.322l.064-.323v-.388l.065-.387v-.775l.064-.387v-26.089h15.756v27.897l-.064.516v1.098l-.129 1.033v.452l-.065.517-.064.452-.13.516-.129.904-.258.904-.129.388-.129.452-.388 1.162-.387.775-.129.388-.194.323-.258.387-.388.646-.258.323-.194.322-.258.259-.258.323-.517.516-.452.388-.388.387-.904.646-.516.323-.452.258-.517.323-2.324 1.033-.582.194-1.291.387-2.131.581-.71.13-.775.193-1.55.259-.84.064-.839.129-.84.065-.839.129-1.808.129h-.969l-.968.065h-.969l-.969.064z"/><path d="m295.946 155.045h-18.921v-10.138h19.308l.452-.065h.452l.452-.065h.452l.452-.064.775-.129.452-.065.323-.064.775-.13.646-.129.323-.129.258-.064.323-.13.258-.064.517-.258.258-.065.194-.129.258-.129.387-.259.13-.129.193-.129.775-.775.129-.194.065-.129.129-.193.065-.194.129-.194.064-.194.13-.193.064-.194.129-.194.129-.516.065-.194.065-.258.064-.323.129-.517.194-.969v-.322l.065-.323v-.388l.064-.387v-.388l.065-.387v-26.476h15.756v28.413l-.065.517v.581l-.064.517v.516l-.065.452-.064.517-.065.452-.129.516-.129.904-.259.904-.129.388-.129.452-.387 1.162-.388.775-.129.388-.194.323-.193.387-.259.323-.193.323-.259.323-.193.322-.259.259-.258.323-.517.516-.452.388-.387.387-.904.646-.517.323-.452.258-.516.323-.581.258-.517.259-.581.258-.646.258-.581.194-1.292.387-2.131.581-.71.13-.775.193-1.55.259-.839.064-.84.129-.839.065-.84.129-1.808.129h-.968l-.969.065h-.968l-.969.064z"/></g><path d="m358.067 199.149h6.134v5.166h-6.134zm-18.727-4.132c0 1.678.387 3.035 1.227 4.068.839 1.033 1.937 1.485 3.293 1.485s2.454-.517 3.293-1.55c.775-1.033 1.227-2.389 1.227-4.197 0-1.679-.387-2.971-1.227-4.004-.839-.968-1.937-1.485-3.293-1.485s-2.454.517-3.293 1.485c-.84 1.098-1.227 2.454-1.227 4.198m9.04-6.652v-9.621h5.748v25.571h-5.748v-3.293c-.581 1.291-1.42 2.26-2.453 2.841-1.034.581-2.261.904-3.81.904-2.583 0-4.714-.904-6.329-2.647-1.614-1.808-2.389-4.133-2.389-7.039 0-2.97.84-5.36 2.454-7.168 1.679-1.808 3.81-2.712 6.522-2.712 1.356 0 2.518.258 3.422.71.969.453 1.808 1.292 2.583 2.454m-27.702-2.712h2.777v-4.907h5.747v4.907h3.487v3.487h-3.487v10.009c0 .775.129 1.292.452 1.486.323.193 1.033.322 2.26.322h.775v3.746h-1.356c-.323 0-.711.064-1.034.064h-.968c-2.519 0-4.133-.516-4.843-1.485-.711-.969-1.033-2.454-1.033-4.456v-9.75h-2.777zm-21.181-6.909h6.07v20.986h14.271v4.585h-20.341zm-33.772 19.501h5.747c.258.969.71 1.615 1.356 2.067.646.387 1.679.581 3.1.581 1.162 0 2.131-.194 2.776-.517.711-.323 1.033-.775 1.033-1.291 0-.259-.064-.452-.129-.581-.064-.194-.258-.323-.516-.452-.194-.065-.452-.194-.711-.323-.322-.129-.645-.194-1.097-.323l-6.329-1.873c-1.485-.452-2.647-1.033-3.358-1.743-.774-.711-1.162-1.615-1.162-2.648 0-1.808.84-3.229 2.583-4.326 1.744-1.098 3.939-1.679 6.716-1.679 1.873 0 3.551.258 4.908.839 1.356.517 2.453 1.356 3.164 2.389.064.065.129.194.193.259.065.064.065.129.13.258.129.258.258.517.387.775s.194.646.258 1.033c0 .065.065.194.065.323s.064.258.064.323h-5.553c-.194-.84-.517-1.421-1.033-1.744-.517-.323-1.421-.516-2.583-.516s-2.067.129-2.712.452c-.646.323-.969.71-.969 1.227 0 .193.065.387.258.581.13.193.388.323.646.387l8.911 2.519c1.163.323 2.131.904 2.842 1.679.71.774 1.098 1.679 1.098 2.712v.193c0 .065 0 .13-.065.194-.129 1.098-.71 2.196-1.679 3.164-1.033 1.034-2.196 1.679-3.616 2.131-.065 0-.065.065-.129.065h-.194c-.646.194-1.292.258-2.002.323-.71.064-1.485.129-2.325.129-3.164 0-5.618-.581-7.361-1.679-1.679-1.162-2.583-2.777-2.712-4.908m-8.395-19.501h5.747v25.571h-5.747zm-9.04 16.854c-.517.064-.969.129-1.356.193-.388.065-.711.065-1.034.13-.193.064-.387.064-.516.129-.129 0-.323.064-.452.064s-.259.065-.388.065-.258.064-.387.064c-1.356.259-2.325.517-2.841.904-.517.388-.775.969-.775 1.679 0 .646.258 1.163.839 1.55.517.388 1.292.581 2.131.581 2.002 0 3.293-.516 3.875-1.549.581-1.098.904-2.325.904-3.81m-12.851-4.004c.129-2.195.969-3.874 2.454-4.908 1.55-1.033 3.81-1.549 6.845-1.549 2.196 0 4.004.258 5.424.71 1.421.517 2.454 1.227 3.035 2.26v.065c.259.452.452.904.581 1.485.065.516.13 1.356.13 2.389v9.363c0 .646.064 1.227.258 1.679s.452.84.839 1.227h-5.811c-.129-.193-.259-.323-.323-.516-.065-.129-.194-.259-.259-.452-.129-.194-.193-.452-.258-.711-.064-.258-.064-.516-.064-.904-.388.388-.711.711-1.098.969-.323.258-.71.517-1.033.71-.711.452-1.486.775-2.26.969-.775.194-1.679.258-2.777.258-1.873 0-3.423-.516-4.585-1.55-1.162-1.033-1.743-2.389-1.743-4.003 0-1.615.452-2.906 1.356-3.81.904-.969 2.389-1.615 4.391-2.002 1.033-.194 2.195-.387 3.422-.517 1.292-.193 2.648-.322 4.197-.452 0-1.097-.193-2.001-.516-2.518-.323-.581-1.292-.839-2.777-.839-1.291 0-2.195.193-2.841.581-.646.387-1.033 1.033-1.227 2.001h-5.36zm-1.808.646h-5.747c-.258-1.163-.646-1.937-1.291-2.454-.582-.517-1.421-.71-2.454-.71-1.486 0-2.648.516-3.423 1.549-.775 1.034-1.227 2.519-1.227 4.392v1.162c.129 1.162.452 2.26 1.098 3.229.581.968 1.744 1.485 3.358 1.485 1.098 0 1.937-.258 2.518-.775.582-.517 1.034-1.421 1.356-2.648h5.748c-.452 2.39-1.486 4.262-3.165 5.489s-3.939 1.873-6.715 1.873c-3.164 0-5.683-.84-7.426-2.519-1.744-1.678-2.648-4.068-2.648-7.232 0-3.035.904-5.489 2.712-7.232 1.808-1.744 4.262-2.648 7.426-2.648 2.906 0 5.166.646 6.845 1.873 1.744 1.098 2.777 2.906 3.035 5.166m-28.348-13.496h5.682v4.585h-5.682zm0 6.909h5.747v18.727h-5.747zm-14.4 0h5.811v2.971c.582-1.034 1.357-1.808 2.325-2.454.969-.646 1.937-.969 2.906-.969h.904c.194 0 .387 0 .581.065v5.037h-.646c-.193 0-.387-.065-.581-.065h-.645c-1.615 0-2.842.387-3.681 1.162-.84.775-1.227 2.002-1.227 3.552v9.428h-5.747zm-14.271 0h2.776v-4.907h5.748v4.907h3.487v3.487h-3.487v10.009c0 .775.129 1.292.452 1.486.322.193 1.033.322 2.26.322h.775v3.746h-1.356c-.323 0-.711.064-1.034.064h-.968c-2.519 0-4.133-.516-4.843-1.485-.711-.969-1.034-2.454-1.034-4.456v-9.75h-2.776zm-.388 6.587h-5.747c-.258-1.163-.71-1.937-1.291-2.454-.582-.517-1.421-.71-2.454-.71-1.485 0-2.583.516-3.423 1.549-.839 1.034-1.227 2.519-1.227 4.392v1.162c.13 1.162.452 2.26 1.098 3.229.581.968 1.744 1.485 3.358 1.485 1.098 0 1.937-.258 2.518-.775.582-.517 1.034-1.421 1.357-2.648h5.747c-.452 2.39-1.486 4.262-3.164 5.489-1.679 1.227-3.94 1.873-6.716 1.873-3.164 0-5.683-.84-7.426-2.519-1.744-1.678-2.648-4.068-2.648-7.232 0-3.035.904-5.489 2.712-7.232 1.808-1.744 4.262-2.648 7.426-2.648 2.906 0 5.166.646 6.845 1.873 1.744 1.098 2.712 2.906 3.035 5.166m-35.128.452h7.942c-.129-1.163-.581-2.067-1.227-2.712-.645-.646-1.614-.969-2.712-.969-1.162 0-2.066.323-2.776.969-.646.645-1.034 1.549-1.227 2.712m0 3.229c.129 1.679.581 2.97 1.227 3.745.71.775 1.679 1.162 3.035 1.162.581 0 1.097-.064 1.549-.258.388-.194.775-.452 1.163-.904.129-.129.258-.258.323-.452.129-.129.193-.323.322-.452h5.877c-.904 2.066-2.131 3.551-3.616 4.456-1.486.968-3.423 1.42-5.748 1.42-3.164 0-5.618-.839-7.361-2.583-1.808-1.743-2.648-4.068-2.648-7.168 0-3.164.904-5.553 2.648-7.297 1.743-1.743 4.197-2.583 7.361-2.583 3.229 0 5.683.84 7.362 2.519s2.583 4.133 2.583 7.361v.517c0 .129 0 .258-.065.387h-14.012zm-14.336-17.177h5.747v25.571h-5.747zm-25.571 0h21.18v4.585h-15.11v5.488h13.819v4.327h-13.819v6.586h15.756v4.585h-21.826zm-21.116 0h5.747v4.585h-5.747zm-2.519 29.252c.065 0 .065-.065.129-.065.065 0 .065 0 .129.065h.259c.839 0 1.42-.129 1.679-.387.258-.259.387-.775.387-1.615v-20.341h5.747v19.179c0 1.808-.064 3.035-.258 3.81-.129.775-.517 1.356-.969 1.872-.516.452-1.162.84-2.066 1.098-.839.259-1.744.388-2.777.388h-.839c-.388 0-.84 0-1.421-.065zm-6.522-12.398c-.516.064-.968.129-1.356.193-.387.065-.71.065-1.033.13-.194.064-.388.064-.517.129-.129 0-.323.064-.452.064s-.258.065-.387.065-.258.064-.388.064c-1.356.259-2.324.517-2.841.904-.517.388-.775.969-.775 1.679 0 .646.258 1.163.84 1.55.516.388 1.291.581 2.131.581 2.001 0 3.293-.516 3.874-1.549.581-1.098.904-2.325.904-3.81m-12.85-4.004c.129-2.195.968-3.874 2.454-4.908 1.549-1.033 3.81-1.549 6.845-1.549 2.195 0 4.003.258 5.424.71 1.42.517 2.454 1.227 3.035 2.26v.065c.258.452.452.904.581 1.485.065.516.129 1.356.129 2.389v9.363c0 .646.065 1.227.258 1.679.194.452.452.84.775 1.227h-5.811c-.13-.193-.259-.323-.323-.516-.065-.129-.194-.259-.259-.452-.129-.194-.193-.452-.258-.711-.064-.258-.064-.516-.064-.904-.388.388-.711.711-1.098.969-.323.258-.711.517-1.033.71-.711.452-1.486.775-2.261.969-.774.194-1.678.258-2.776.258-1.873 0-3.423-.516-4.585-1.55-1.162-1.033-1.744-2.389-1.744-4.003 0-1.615.452-2.906 1.357-3.81.904-.969 2.389-1.615 4.391-2.002 1.033-.194 2.195-.387 3.422-.517 1.292-.193 2.648-.322 4.197-.452 0-1.097-.193-2.001-.516-2.518-.323-.581-1.292-.839-2.777-.839-1.291 0-2.195.193-2.841.581-.646.387-1.033 1.033-1.227 2.001h-5.295zm-9.041-12.85h5.747v4.585h-5.747zm-2.583 29.252c.065 0 .065-.065.129-.065.065 0 .065 0 .13.065h.258c.839 0 1.421-.129 1.679-.387.258-.259.387-.775.387-1.615v-20.341h5.747v19.179c0 1.808-.064 3.035-.258 3.81-.129.775-.516 1.356-.968 1.872-.517.452-1.163.84-2.067 1.098-.839.259-1.743.388-2.777.388h-.774c-.388 0-.84 0-1.421-.065v-3.939zm-6.522-12.398c-.516.064-.968.129-1.356.193-.387.065-.71.065-1.033.13-.194.064-.387.064-.517.129-.129 0-.322.064-.452.064-.129 0-.258.065-.387.065s-.258.064-.387.064c-1.357.259-2.325.517-2.842.904-.516.388-.775.969-.775 1.679 0 .646.259 1.163.84 1.55.516.388 1.291.581 2.131.581 2.002 0 3.293-.516 3.874-1.549.646-1.098.904-2.325.904-3.81m-12.785-4.004c.129-2.195.968-3.874 2.453-4.908 1.55-1.033 3.81-1.549 6.845-1.549 2.196 0 4.004.258 5.425.71 1.42.517 2.453 1.227 3.035 2.26v.065c.258.452.452.904.581 1.485.064.516.129 1.356.129 2.389v9.363c0 .646.064 1.227.258 1.679s.452.84.84 1.227h-5.812c-.129-.193-.258-.323-.323-.516-.065-.129-.194-.259-.258-.452-.129-.194-.194-.452-.259-.711-.064-.258-.064-.516-.064-.904-.388.388-.71.711-1.098.969-.323.258-.71.517-1.033.71-.71.452-1.485.775-2.26.969s-1.679.258-2.777.258c-1.873 0-3.422-.516-4.585-1.55-1.162-1.033-1.743-2.389-1.743-4.003 0-1.615.452-2.906 1.356-3.81.904-.969 2.389-1.615 4.391-2.002 1.033-.194 2.195-.387 3.422-.517 1.292-.193 2.648-.322 4.198-.452 0-1.097-.194-2.001-.517-2.518-.323-.581-1.291-.839-2.777-.839-1.291 0-2.195.193-2.841.581-.646.387-1.033 1.033-1.227 2.001h-5.359zm-20.987-8.265v5.553h6.005c1.873 0 3.1-.194 3.746-.581.645-.388.968-1.098.968-2.196 0-1.033-.323-1.743-1.033-2.131-.71-.387-1.873-.581-3.552-.581h-6.134zm0 9.879v6.522h5.876c2.26 0 3.81-.258 4.649-.71.84-.452 1.227-1.356 1.227-2.583 0-1.291-.387-2.131-1.162-2.583s-2.325-.646-4.585-.646zm-6.07-14.464h12.85c1.937 0 3.487.129 4.52.323 1.034.193 2.002.581 2.842 1.097.968.582 1.679 1.356 2.195 2.26.517.905.71 1.873.71 2.971 0 1.227-.258 2.26-.774 3.099-.517.84-1.357 1.615-2.519 2.261 1.485.516 2.583 1.291 3.293 2.195.711.904 1.034 2.131 1.034 3.552 0 1.291-.259 2.389-.84 3.487-.581 1.033-1.356 1.937-2.454 2.647-.904.646-2.001 1.098-3.293 1.356-1.227.259-2.906.388-4.972.388h-12.592z" fill="#231f20" fill-rule="nonzero"/></svg>