<svg clip-rule="evenodd" fill-rule="evenodd" stroke-linejoin="round" stroke-miterlimit="2" viewBox="0 0 560 400" xmlns="http://www.w3.org/2000/svg"><g transform="matrix(2.38095 0 0 2.38095 100 125.714)"><path d="m73.7 22c3.8 4.4 5.7 9.9 5.7 16.4s-1.9 11.9-5.7 16.3-8.7 6.6-14.4 6.6-10.6-2.2-14.4-6.6c-3.8-4.3-5.7-9.8-5.7-16.3s1.9-12 5.7-16.4c3.8-4.5 8.6-6.7 14.4-6.7s10.6 2.3 14.4 6.7zm-.8 16.3.1-.1c0-4.6-1.4-8.6-4-11.7s-5.7-4.6-9.6-4.6-7.1 1.5-9.7 4.6c-2.7 3.1-4 7.1-4 11.8s1.4 8.6 4 11.7c2.6 3 5.8 4.5 9.7 4.5s7-1.4 9.6-4.5 3.9-7 3.9-11.7zm76.8 14.2h-.1l1.6-.6v6.9l-.7.3c-3.6 1.5-7.1 2.3-10.6 2.3s-6.4-.9-8.8-2.7-3.7-4.4-3.7-7.6v-29.8h-15.2l6.9-6.1h8.3v-9.5l4.2-4.7h3.3v14.1h13.8v6.1h-13.8v24.4c0 4.8.5 6.7 1 7.5.3.5 1.4 1.4 5.2 1.4 2.4 0 5.3-.7 8.6-2zm-131.5-37.3.1-.1c4-.1 10.4 2 13.7 5.7 3.9 4.4 5.8 7.8 5.8 15.5s-2 13.9-6.1 18.4c-4 4.4-9.4 6.5-16.8 6.5-5 0-9.6-1-14.2-3l-.7-.3v-56.9h3.3l3.2 4.8v13.8c3.2-2.8 7.1-4.3 11.7-4.4zm13.5 21.6h.1c.3-6.1-3.3-10.5-3.7-11-2.7-3.1-5.5-4.5-9.4-4.5-3.7-.1-7.7.6-12.2 6.1v26c2.8 1 3 1.2 8.2 1.2s9.8-1.7 12.5-4.7c2.6-2.5 4.4-7.7 4.5-13.1z" fill="#1a2024"/><path d="m93.1 15.5-18 45.6h15.1l-4.2-9.5h28.9l-3.9 9.5h14.4l-17.9-45.6zm-1.2 35.2 9-25.5 7.3 20.1z" fill="#e91c24" fill-rule="nonzero"/></g></svg>