<svg clip-rule="evenodd" fill-rule="evenodd" stroke-linejoin="round" stroke-miterlimit="2" viewBox="0 0 102 37" xmlns="http://www.w3.org/2000/svg"><g fill-rule="nonzero" transform="matrix(2.61655 0 0 2.61655 -580.763 -1456.62)"><path d="m259.91 559.091c-.026-.235-.198-.422-.427-.469-1.661-.365-8.557-1.734-17.661-1.734h-.756c-9.109 0-16.005 1.369-17.666 1.734-.229.047-.396.234-.427.469l-.823 7.192c0 .016.01.027.021.027 10.328-.516 16.375 1.854 18.458 3.125.5.307 1.135.307 1.635 0 2.068-1.271 8.12-3.641 18.448-3.125.016 0 .021-.011.021-.027z" fill="#eb1923"/><path d="m222.15 566.283.015-.125c7.115-.698 17.391-.322 22.766 2.688-.896.365-2.255 1.12-2.667 1.37-.505.312-1.135.312-1.635 0-.412-.25-.985-.573-1.709-.917-2.921-1.396-8.406-3.229-16.604-2.844-.104.004-.177-.078-.166-.172" fill="#fdd700"/><path d="m260.733 566.283-.015-.125c-7.11-.698-17.401-.318-22.776 2.698.89.36 2.25 1.104 2.682 1.36.531.328 1.135.312 1.635 0 .412-.251.979-.553 1.709-.917 2.895-1.453 8.406-3.229 16.599-2.844.099.004.182-.073.166-.172" fill="#7fbd3f"/><g fill="#fff"><path d="m228.843 561.825c.38.161.593.495.593.922 0 .729-.484 1.224-1.317 1.224h-1.922v-4.135h1.76c.755 0 1.302.447 1.302 1.229 0 .296-.156.599-.416.76m-1.766-1.229v.937h.812c.302 0 .495-.161.5-.442.006-.302-.192-.495-.5-.495zm0 1.661v.943h.984c.302 0 .479-.177.5-.453.006-.167-.062-.323-.182-.406-.104-.073-.224-.084-.359-.084z"/><path d="m233.431 563.846v.125h-.547c-.437 0-.614-.344-.614-.344l-.641-1.026h-.74v1.37h-.885v-4.146c.588 0 1.177-.003 1.771 0 .943 0 1.458.688 1.458 1.422 0 .532-.265.99-.739 1.224zm-1.667-1.969c.37 0 .615-.286.61-.646 0-.349-.229-.63-.61-.63h-.885v1.276z"/><path d="m233.994 559.836h.885v4.141h-.885z"/><path d="m251.098 559.836h.891v4.141h-.891z"/><path d="m235.441 560.601v-.765h3.422l-.239.515c-.068.156-.224.25-.396.25h-.771v3.375h-.859v-3.375z"/><path d="m239.296 563.289-.318.687h-.922v-.12l1.901-4.057h.412l1.895 4.057v.12h-.922l-.322-.687zm.291-.745h1.146l-.573-1.365"/><path d="m243.54 561.612v2.364h-.88v-4.161h.276l2.323 2.369v-2.348h.891v4.156h-.266"/><path d="m247.764 561.612v2.364h-.88v-4.161h.276l2.328 2.369v-2.348h.886v4.156h-.266"/><path d="m253.723 563.289-.318.687h-.922v-.12l1.901-4.057h.412l1.89 4.057v.12h-.916l-.323-.687zm.291-.745h1.146l-.573-1.365"/></g></g></svg>