<svg clip-rule="evenodd" fill-rule="evenodd" stroke-linejoin="round" stroke-miterlimit="2" viewBox="0 0 805 287" xmlns="http://www.w3.org/2000/svg"><path d="m231.14 85.9c19.73-.01 39.47-.01 59.21 0-8.24 49.41-16.47 98.82-24.69 148.23 27.11-.03 54.22.01 81.33-.02-2.52 15.05-4.97 30.12-7.56 45.17-46.83-.05-93.66-.01-140.49-.02 10.7-64.46 21.45-128.91 32.2-193.36zm-224.71 193.36c10.79-64.47 21.36-128.97 32.3-193.41 20.76.11 41.53.01 62.3.04 17.54.09 35.39-.8 52.54 3.66 14.04 3.43 27.67 10.71 36.33 22.57 9.7 13.07 12.63 29.86 12.39 45.81-.29 21.85-6.03 43.42-15.12 63.21-6.83 14.22-16.4 27.33-28.92 37.07-14.66 11.53-32.87 17.93-51.3 20-10.92 1.36-21.95 1.01-32.94 1.05zm381.53-193.36c46.86-.01 93.71-.01 140.57 0-2.47 15.03-5.03 30.04-7.49 45.07-27.12.17-54.24.01-81.37.09-1.93 11.71-3.9 23.42-5.85 35.13 21.58-.01 43.16.09 64.74-.05-2.34 15.07-5.02 30.09-7.44 45.16-21.6.05-43.21-.01-64.81.03-3.76 22.64-7.57 45.28-11.3 67.93-19.75-.01-39.49.01-59.24-.01 10.73-64.45 21.51-128.89 32.19-193.35zm362.55 103.88c8.38 13.7 15.9 27.93 23.97 41.82 8.99 15.89 18 31.76 27.01 47.63-33.88.01-67.76.04-101.63-.01 16.86-29.83 33.83-59.59 50.65-89.44zm-214.09-.13c17.06 29.79 33.92 59.71 50.84 89.58-33.87.02-67.73.02-101.59 0 16.89-29.88 33.86-59.7 50.75-89.58zm107.18 3.53c16.51 28.53 32.51 57.37 48.75 86.06-32.47.01-64.94 0-97.4 0 16.17-28.71 32.56-57.3 48.65-86.06zm5.66-3.45c31.22-.02 62.45-.01 93.68-.01-15.61 27.55-31.23 55.09-46.85 82.64-15.6-27.55-31.24-55.08-46.83-82.63zm-105.04-.03c31.23.05 62.46 0 93.69.02-15.32 27.12-30.77 54.17-46.05 81.31-.47 1.79-1.73.1-1.98-.7-15.15-26.92-30.47-53.74-45.66-80.63zm-453.88-58.66c-5.74 34.36-11.45 68.72-17.18 103.08 10.76-.19 21.84.92 32.24-2.51 11.54-3.39 21.04-11.99 26.6-22.53 7.59-14.4 10.24-30.92 10.52-47.04-.18-8.89-1.67-19.63-10.04-24.65-12.57-7.8-28.02-6.11-42.14-6.35zm449.9 51.82c16.3-28.62 32.49-57.31 48.78-85.94 16.29 28.65 32.51 57.35 48.81 86-32.53-.03-65.06.08-97.59-.06zm108.94.03c16.29-28.63 32.48-57.33 48.78-85.97 16.28 28.66 32.54 57.33 48.79 86.01-32.53-.04-65.05.05-97.57-.04zm-52.43-85.94c31.22-.02 62.44.01 93.66-.01-15.58 27.56-31.24 55.07-46.81 82.63-15.68-27.5-31.27-55.06-46.85-82.62zm46.66-96.21c5.91 9.21 10.87 19.01 16.42 28.44 11.5 20.33 23.04 40.62 34.53 60.96-33.86.05-67.72.02-101.57.01 16.81-29.84 33.78-59.58 50.62-89.41z" fill="#1b1b1b" fill-rule="nonzero"/></svg>