<svg clip-rule="evenodd" fill-rule="evenodd" stroke-linejoin="round" stroke-miterlimit="2" viewBox="0 0 560 400" xmlns="http://www.w3.org/2000/svg"><g fill-rule="nonzero" transform="matrix(10.4773 0 0 -10.4773 -3776.13 4260)"><path d="m363.272 383.526h47.722v7.953h-47.722z" fill="#004c8f"/><path d="m371.226 383.526h39.768v7.953h-39.768z" fill="#004c8f"/><g fill="#fff"><path d="m373.755 385.621v3.763h1.238v-1.27h1.16v1.27h1.24v-3.763h-1.24v1.46h-1.16v-1.46z"/><path d="m379.352 388.449h.321c.231 0 .4-.024.508-.072.08-.035.145-.087.202-.165.052-.077.094-.174.125-.296.028-.121.043-.249.043-.384 0-.22-.03-.404-.095-.553-.063-.149-.154-.256-.271-.322-.117-.067-.291-.099-.521-.099l-.312-.002zm.478-2.828c.292 0 .534.024.732.077.199.051.361.119.485.2.126.083.24.195.345.334.104.144.195.325.266.547.073.221.108.47.108.752 0 .414-.079.764-.239 1.056-.162.286-.382.493-.663.615-.28.122-.614.182-1.002.182h-1.721v-3.763z"/><path d="m382.333 385.621v3.763h2.936v-.928h-1.714v-.603h1.371v-.903h-1.371v-1.329z"/><path d="m389.415 387.945h-1.169c-.022.187-.09.335-.203.441-.114.104-.257.155-.433.155-.219 0-.397-.085-.534-.253-.138-.17-.207-.445-.207-.823 0-.264.031-.462.088-.597.059-.139.142-.239.245-.306.106-.067.235-.098.394-.098.19 0 .342.048.453.158.114.103.18.257.202.463h1.19c-.026-.234-.073-.43-.141-.59-.065-.159-.181-.317-.338-.476-.159-.161-.349-.285-.568-.371-.219-.087-.472-.128-.762-.128-.286 0-.553.041-.794.125-.244.086-.45.208-.614.361-.167.159-.297.337-.39.538-.134.283-.197.594-.197.941 0 .29.047.565.142.817.095.25.226.463.393.635.168.171.351.299.555.385.258.11.542.163.857.163.274 0 .528-.04.768-.121.239-.081.435-.199.588-.356.155-.157.274-.337.357-.542.06-.143.098-.316.118-.521"/><path d="m393.38 388.537c.175 0 .288-.008.344-.024.072-.021.132-.062.175-.116.044-.056.067-.121.067-.196 0-.096-.038-.175-.111-.235-.078-.063-.211-.092-.402-.092h-.466v.663zm.311-2.916c.293 0 .499.014.62.04.119.028.242.072.367.13.122.064.216.124.278.19.096.089.167.197.219.327.052.131.078.279.078.438 0 .227-.056.414-.17.566-.114.153-.267.254-.46.309.327.206.49.472.49.796 0 .335-.144.591-.429.765-.22.134-.563.202-1.028.202h-1.867v-3.763zm-.199 1.576c.245 0 .404-.03.484-.093.074-.061.114-.145.114-.258 0-.114-.04-.204-.121-.267-.077-.067-.238-.095-.477-.095h-.505v.713z"/><path d="m397.972 386.886h-.787l.388 1.369zm-1.157-1.265.143.494h1.232l.144-.494h1.231l-1.35 3.763h-1.257l-1.351-3.763z"/><path d="m400.085 385.621v3.763h1.153l1.301-2.015v2.015h1.186v-3.763h-1.178l-1.273 1.965v-1.965z"/><path d="m404.55 385.621v3.763h1.199v-1.241l1.119 1.241h1.454l-1.379-1.417 1.522-2.346h-1.482l-.905 1.499-.329-.325v-1.174z"/></g><path d="m363.272 383.526h7.953v7.953h-7.953z" fill="#ed232a"/><path d="m364.664 384.917h5.17v5.17h-5.17z" fill="#fff"/><path d="m366.851 383.526h.795v7.953h-.795z" fill="#fff"/><path d="m363.272 387.104h7.953v.795h-7.953z" fill="#fff"/><path d="m366.056 386.309h2.386v2.386h-2.386z" fill="#004c8f"/></g></svg>