<svg clip-rule="evenodd" fill-rule="evenodd" stroke-linejoin="round" stroke-miterlimit="2" viewBox="0 0 400 155" xmlns="http://www.w3.org/2000/svg"><path d="m188 .179c-50.437 3.447-86.581 27.448-85.444 56.738 1.631 42.018 77.857 67.966 139.861 47.61 52.508-17.239 64.502-59.106 24.583-85.813-19.593-13.107-50.91-20.456-79-18.535m-38.667 18.736c25.585 2.771 44.745 16.944 47.77 35.335 2.021 12.29-5.275 25.767-15.383 28.414-4.577 1.199-9.72-1.026-9.72-4.205 0-1.529.783-1.977 3.75-2.146 5.329-.303 7.624-2.548 7.655-7.487.027-4.38-2.82-7.101-8.738-8.35-2.901-.612-11.684-.584-12.436.04-.194.161-.231 2.761-.231 16.172v15.981l-12.792-.043-12.791-.043v-73.833l.583-.115c.993-.197 9.776.003 12.333.28m108.792-.307.875.105v73.956l-12.792-.043-12.791-.043-.084-16.081-.083-16.081-.833-.15c-1.93-.346-9.862-.211-11.75.201-6.313 1.376-9.336 4.702-8.683 9.553.559 4.16 2.85 6.038 7.683 6.297 3.929.211 5.106 2.123 2.731 4.436-5.498 5.356-16.006.851-21.215-9.094-8.646-16.507.534-36.311 21.484-46.349 7.914-3.792 17.385-6.128 27.166-6.7 1.804-.105 7.433-.11 8.292-.007m-87.833 19.086c-1.135.414-.062 1.603 2.017 2.234 2.588.786 3.785-.536 1.524-1.684-1.279-.649-2.676-.866-3.541-.55m53.125-.081c-2.955.662-4.262 2.554-1.765 2.554 1.651 0 4.19-1.349 3.911-2.077-.188-.488-1.145-.701-2.146-.477m-54.178 15.272c-.045.118-.061 1.298-.035 2.623l.046 2.409 10 .037c6.518.024 9.904-.019 9.724-.124-.151-.089-1.876-.577-3.833-1.084-6.395-1.657-12.698-3.272-14.058-3.603-.733-.178-1.43-.357-1.548-.397-.118-.041-.251.022-.296.139m54.928.277c-9.577 2.439-18.043 4.659-18.139 4.755-.046.046 4.466.083 10.028.083h10.111v-2.573c0-3.028.183-2.821-2-2.265m-215.224 65.129c-.044.071-.352 1.365-.685 2.877-2.75 12.493-5.38 22.958-7.35 29.249-.43 1.375-.819 2.631-.865 2.791-.076.273.2.292 4.167.292 4.798 0 4.49.092 4.76-1.417.733-4.092 5.078-21.924 5.29-21.711.206.205 1.165 14.159 1.383 20.128l.107 2.917 10.188.088.563-1.294c.834-1.912 10.476-21.211 10.599-21.211.238 0-2.944 16.448-3.805 19.667-.281 1.054-.547 2.123-.589 2.375l-.077.458h8.546l.139-.375c.076-.206.267-1.388.425-2.625.275-2.161 5.277-27.731 5.939-30.361.558-2.213 1.266-1.973-5.803-1.97-3.369.002-6.212.058-6.318.126-.107.067-.646 1.11-1.198 2.316-.553 1.206-1.937 4.018-3.076 6.249s-3.33 6.532-4.868 9.557-2.823 5.531-2.856 5.569c-.204.238-.309-.555-.503-3.78-.12-1.992-.407-6.698-.637-10.456-.231-3.758-.438-7.433-.461-8.167l-.041-1.333-6.448-.044c-3.546-.024-6.483.014-6.526.085m93.582.167c-.084.161-.204.629-.266 1.042-1.127 7.492-3.887 21.001-6.005 29.394-.598 2.371-1.087 4.377-1.087 4.458 0 .182 8.615.2 8.727.018.044-.071.352-1.702.685-3.625 2.333-13.469 4.623-17.412 10.112-17.412 4.052 0 4.07 2.156.155 18.15-.368 1.503-.629 2.797-.581 2.875.117.188 8.523.184 8.639-.004.05-.081.358-1.701.685-3.601.326-1.899 1.072-5.864 1.656-8.811 1.859-9.382 1.844-11.087-.115-13.213-2.662-2.887-10.411-3.29-14.93-.775-.578.321-1.093.542-1.145.49-.116-.116.567-3.215 1.438-6.52.36-1.368.617-2.548.571-2.622-.19-.308-8.374-.158-8.539.156m125.183-.083c-.092.115-.253.733-.359 1.375-.233 1.418-1.322 7.107-2.121 11.083-1.377 6.858-3.772 17.204-4.798 20.727-.237.813-.43 1.581-.43 1.709 0 .191.794.231 4.65.231h4.649l.181-1.042c.099-.573.262-1.641.363-2.375.388-2.834 2.073-10.664 2.379-11.054.139-.177 1.493-.213 6.976-.181 3.742.022 6.838.005 6.88-.037.08-.08 1.376-6.122 1.532-7.144l.089-.584-6.933.058c-3.813.031-6.933.017-6.933-.031 0-.225.539-2.667.863-3.915l.362-1.389 7.718.044c4.246.024 7.777-.013 7.847-.083.07-.069.246-.701.392-1.405.146-.703.476-2.264.733-3.469.258-1.205.422-2.311.365-2.458-.137-.359-24.12-.417-24.405-.06m26.968-.051c-.143.09-.425 1.026-.69 2.289-.248 1.175-.577 2.723-.732 3.438-.155.716-.241 1.41-.19 1.542.109.285 8.172.365 8.347.083.053-.086.281-1.08.506-2.208.226-1.128.557-2.722.737-3.541.18-.82.289-1.551.243-1.625-.115-.187-7.924-.166-8.221.022m-164.343 2.522c-1.421.263-3.108.575-3.75.694l-1.166.215-.225.998c-.124.548-.349 1.484-.501 2.08l-.277 1.084-1.83.047c-2.237.059-1.943-.313-2.728 3.451-.78 3.738-.879 3.418 1.061 3.418.86 0 1.598.057 1.64.125.091.15-1.81 8.99-2.639 12.27-1.637 6.475.009 8.725 6.509 8.9 2.556.068 5.939-.253 6.267-.596.089-.094 1.156-2.986 2.483-6.736.298-.84.336-.834-1.924-.283-3.529.861-4.697.62-4.641-.957.024-.693.872-4.807 2.262-10.973l.376-1.666 3.119-.046 3.12-.045.167-.621c.308-1.147 1.177-5.451 1.177-5.83 0-.375-.003-.375-2.916-.375h-2.917v-.377c0-.208.224-1.389.497-2.625.274-1.237.499-2.342.5-2.456.004-.302-.72-.242-3.664.304m109.834.14c-4.262.776-4.334.794-4.334 1.119 0 .147-.151.914-.337 1.706-.185.791-.374 1.608-.419 1.814-.08.361-.152.375-1.893.375-2.206 0-1.978-.279-2.737 3.35-.812 3.88-.934 3.483 1.072 3.483h1.685l-.108.625c-.275 1.59-1.729 8.135-2.544 11.459-1.47 5.988-.476 8.244 4.007 9.094 2.064.392 8.193-.002 8.712-.56.199-.214 2.767-7.302 2.678-7.391-.029-.029-.938.17-2.019.444-3.518.888-4.763.65-4.763-.909 0-.556 1.606-8.255 2.583-12.383.086-.366.136-.372 3.199-.417l3.111-.045.135-.5c.393-1.448 1.291-5.971 1.211-6.1-.051-.083-1.4-.15-2.999-.15s-2.907-.056-2.907-.125.224-1.213.497-2.542c.274-1.329.499-2.548.5-2.708.004-.399-.293-.374-4.33.361m106.083 4.343c-4.144.335-7.677 1.181-7.894 1.891-1.172 3.838-2.207 7.484-2.142 7.549.045.045.866-.253 1.826-.663 6.418-2.742 11.843-3.077 11.393-.704-.214 1.129-1.493 1.699-7.516 3.346-7.052 1.929-9.355 3.567-10.577 7.521-2.043 6.612 2.447 10.976 9.937 9.658 2.582-.455 2.577-.452 3.135-1.719 1.154-2.624 1.826-3.941 1.88-3.686.07.329-.521 2.699-.962 3.86-.442 1.164-.618 1.118 4.257 1.118 5.072 0 4.58.192 4.904-1.917.113-.733.389-2.233.615-3.333.225-1.1.864-4.213 1.419-6.917s1.159-5.666 1.343-6.583c1.501-7.472-1.872-10.207-11.618-9.421m-164.857.348c-8.114 1.705-13.392 8.702-13.393 17.755-.001 7.025 4.11 10.738 11.883 10.733 9.989-.006 16.744-6.737 17.395-17.332.516-8.388-6.295-13.171-15.885-11.156m30.607-.025c-8.267 1.827-13.357 8.51-13.404 17.598-.038 7.511 4.131 11.141 12.487 10.87 8.345-.269 13.938-4.81 16.101-13.072 2.013-7.693-.415-13.297-6.578-15.178-1.894-.579-6.452-.694-8.606-.218m105.75.077c-1.69.448-2.281.687-3.557 1.438l-.89.523.057-.803.057-.804-3.936-.044c-4.666-.053-4.126-.411-4.717 3.128-.91 5.455-2.526 13.043-4.19 19.68-.591 2.354-1.074 4.365-1.074 4.467 0 .232 8.598.265 8.741.034.052-.084.248-1.115.435-2.292 2.233-14.016 4.624-18.494 9.978-18.687 3.792-.137 4.174 1.152 2.605 8.798-.692 3.374-1.051 4.98-2.24 9.996-.27 1.143-.456 2.137-.412 2.208.106.172 8.517.167 8.623-.005.046-.074.241-1.106.435-2.292.392-2.404.729-4.189 2.174-11.531 1.601-8.133 1.472-10.214-.757-12.176-2.128-1.873-7.51-2.651-11.332-1.638m57.984.013c-1.492.385-2.394.768-3.591 1.523-.736.465-.79.424-.683-.522l.083-.743h-4.011c-2.415 0-4.052.064-4.112.162-.055.089-.326 1.495-.602 3.125-.985 5.825-2.823 14.403-4.383 20.463-.496 1.925-.867 3.556-.825 3.625s2.02.125 4.397.125h4.32l.087-.375c.047-.206.237-1.35.422-2.542 2.052-13.231 4.602-17.995 9.753-18.22 4.599-.202 4.659 1.458.652 18.105-.316 1.312-.574 2.53-.574 2.708 0 .312.154.324 4.244.324 4.897 0 4.44.184 4.754-1.917.266-1.787 1.843-10.123 2.6-13.75 1.695-8.119.453-11.082-5.138-12.258-1.875-.394-5.543-.312-7.393.167m28.433-.168c-7.217 1.323-11.826 6.134-13.42 14.008-2.323 11.476 5.404 17.264 18.079 13.542l.743-.218 1.212-3.745c.667-2.059 1.214-3.809 1.216-3.888.004-.203-.793-.063-3.046.536-7.794 2.071-11.32-.281-9.709-6.476 1.458-5.604 5.466-7.58 12.006-5.92 1.342.341 2.485.577 2.538.524.135-.136 1.214-6.535 1.214-7.203 0-.881-7.799-1.716-10.833-1.16m23.166.007c-7.206 1.438-12.204 7.055-13.424 15.086-1.538 10.127 4.566 15.085 16.033 13.02 3.772-.679 3.563-.575 4.093-2.044.243-.674.929-2.501 1.522-4.06 1.242-3.256 1.282-3.147-.847-2.282-4.343 1.765-9.213 1.831-11.016.149-.884-.825-1.425-3.399-.891-4.24.101-.159 1.984-.217 8.122-.25l7.992-.043.473-1.834c2.48-9.618-2.662-15.377-12.057-13.502m-336.752.627c-.042.115-.26 1.334-.485 2.709-.441 2.696-.908 5.151-1.952 10.25-1.609 7.86-1.666 9.564-.392 11.738 2.125 3.626 10.109 4.485 15.389 1.655l1.391-.745-.058.801-.057.801h8.164l.293-1.75c1.151-6.874 2.736-14.516 4.295-20.707.64-2.543 1.164-4.699 1.164-4.792 0-.109-1.525-.168-4.337-.168h-4.336l-.149.375c-.081.206-.271 1.275-.422 2.375-1.746 12.742-4.575 18.109-9.688 18.379-4.629.245-4.712-2.075-.662-18.538.314-1.279.535-2.386.49-2.459-.146-.236-8.562-.162-8.648.076m202.211 1.24c-.161.042-.292.119-.292.171 0 1.451-3.352 17.535-4.914 23.581-.301 1.164-.506 2.158-.455 2.208.141.142 8.869.109 8.868-.033-.005-.738 2.933-15.927 4.085-21.125.997-4.493 1.012-4.587.732-4.764-.233-.148-7.475-.181-8.024-.038m137.708 4.844c.665.332 1.166 1.192 1.166 2l.001.541h-3.5c-3.953 0-3.952.001-2.903-1.16 1.322-1.463 3.776-2.11 5.236-1.381m-244.529.465c2.124.631 2.887 2.96 2.208 6.743-.88 4.903-3.342 7.5-7.107 7.5-3.368 0-4.76-1.984-4.235-6.036.805-6.209 4.545-9.57 9.134-8.207m30.476-.007c1.958.581 2.477 1.517 2.45 4.417-.057 6.098-2.765 9.748-7.23 9.746-3.225-.002-4.433-1.262-4.387-4.58.093-6.661 4.277-11.036 9.167-9.583m131.495 9.208c-.044.161-.244 1.004-.446 1.875-.201.871-.419 1.771-.484 2-.105.374-.333.473-2.19.958-3.492.912-5.247.627-5.206-.845.043-1.52.645-1.919 4.967-3.292 3.411-1.084 3.469-1.096 3.359-.696" fill="#d21d25"/></svg>