<svg clip-rule="evenodd" fill-rule="evenodd" stroke-linejoin="round" stroke-miterlimit="2" viewBox="0 0 560 400" xmlns="http://www.w3.org/2000/svg"><g fill-rule="nonzero"><g fill="#292075"><path d="m351.041 730.308c-6.902-5.722-15.837-9.417-23.716-12.677-10.866-4.494-20.253-8.371-20.253-15.562 0-3.141 1.469-6.025 4.142-8.106 2.817-2.198 6.752-3.405 11.073-3.405 13.587 0 24.424 9.608 24.52 9.695l2.649 2.417 12.041-22.584-1.377-1.456c-.525-.557-13.207-13.649-37.67-13.649-11.737 0-22.531 3.751-30.406 10.562-7.99 6.912-12.402 16.453-12.402 26.861 0 10.148 3.94 18.356 12.026 25.084 6.801 5.65 15.273 9.301 23.471 12.836 11.179 4.816 20.845 8.983 20.845 16.395 0 5.645-3.824 11.68-14.54 11.68-15.37 0-27.704-11.704-27.825-11.824l-2.312-2.244-14.969 20.744 1.493 1.672c.168.173 4.036 4.446 11.304 8.698 6.666 3.892 17.628 8.535 31.967 8.535 12.547 0 23.239-3.848 30.926-11.121 7.23-6.849 11.208-16.309 11.208-26.64 0-10.63-3.988-19.106-12.195-25.912" transform="matrix(.9525 0 0 .9525 -21.6205490475 -494.696236665)"/><path d="m433.2810684525 140.474578335h26.7185775v119.3206275h-26.7185775z" stroke-width=".9525"/><path d="m422.757 768.656h-21.351v-78.358h18.828c8.438 0 13.278 4.72 13.278 12.946 0 8.313-4.354 12.523-12.946 12.523h-6.483v23.056h8.674c4.744 0 8.699 1.478 11.43 4.291 2.87 2.948 4.036 5.867 4.036 10.072 0 9.546-5.924 15.47-15.466 15.47m37.246-32.838c-2.774-4.364-6.579-7.832-11.107-10.153 7.307-5.857 11.439-14.85 11.439-25.118 0-10.384-3.954-19.044-11.439-25.06-7.051-5.659-16.843-8.655-28.33-8.655h-45.641v125.27h46.151c12.244 0 22.835-3.092 30.623-8.953 8.843-6.647 13.51-16.54 13.51-28.619 0-6.883-1.796-13.356-5.206-18.712" transform="matrix(.9525 0 0 .9525 -21.6205490475 -494.696236665)"/></g><path d="m192.447 664.597c-35.767 0-64.761 29.062-64.761 64.911 0 33.609 25.483 61.25 58.134 64.574v-47.153c-7.018-2.677-12.017-9.474-12.017-17.421 0-10.283 8.361-18.649 18.644-18.649 10.279 0 18.649 8.366 18.649 18.649 0 7.947-5.009 14.743-12.026 17.421v47.153c32.655-3.324 58.139-30.965 58.139-64.574 0-35.849-28.995-64.911-64.762-64.911" fill="#00b5ef" transform="matrix(.9525 0 0 .9525 -21.6205490475 -494.696236665)"/></g></svg>