<svg width="100%" height="100%" viewBox="0 0 560 400" version="1.1" xmlns="http://www.w3.org/2000/svg" xmlns:xlink="http://www.w3.org/1999/xlink" xml:space="preserve" xmlns:serif="http://www.serif.com/" fill-rule="evenodd" clip-rule="evenodd" stroke-linejoin="round" stroke-miterlimit="2"><g><path d="M68.597,35.236C66.471,35.236 64.681,34.78 63.221,33.868C61.762,32.937 60.721,31.641 60.091,29.98L64.282,27.551C65.132,29.514 66.62,30.498 68.746,30.498C70.671,30.498 71.631,29.922 71.631,28.766C71.631,28.118 71.319,27.633 70.691,27.306C70.042,26.922 68.891,26.505 67.229,26.063C65.53,25.598 64.09,24.93 62.919,24.062C61.623,23.01 60.975,21.522 60.975,19.598C60.975,17.673 61.671,16.065 63.068,14.894C64.484,13.718 66.164,13.132 68.108,13.132C69.85,13.132 71.386,13.545 72.721,14.375C74.055,15.186 75.111,16.367 75.879,17.927L71.779,20.327C71.012,18.686 69.788,17.87 68.108,17.87C67.398,17.87 66.841,18.023 66.438,18.326C66.034,18.628 65.828,19.012 65.828,19.478C65.828,19.982 66.073,20.438 66.558,20.846C67.085,21.249 68.118,21.676 69.653,22.122L71.626,22.761C72.13,22.924 72.721,23.198 73.388,23.581C74.118,23.946 74.665,24.34 75.029,24.767C75.999,25.818 76.489,27.134 76.489,28.713C76.489,30.714 75.759,32.318 74.305,33.508C72.845,34.66 70.945,35.241 68.597,35.241L68.597,35.236ZM92.079,27.767L94.263,19.631L99.121,19.631L94.263,34.814L90.01,34.814L87.581,26.706L85.153,34.814L80.9,34.814L76.042,19.63L80.9,19.63L83.084,27.766L85.45,19.63L89.703,19.63L92.069,27.766L92.079,27.766L92.079,27.767ZM104.511,17.505C104.011,18.02 103.319,18.305 102.601,18.292C101.874,18.3 101.174,18.016 100.657,17.505C100.143,16.99 99.859,16.288 99.869,15.561C99.869,14.812 100.133,14.174 100.657,13.651C101.204,13.103 101.852,12.83 102.601,12.83C103.349,12.83 103.988,13.103 104.511,13.65C105.058,14.178 105.332,14.812 105.332,15.56C105.332,16.31 105.058,16.958 104.511,17.505ZM104.876,34.809L100.321,34.809L100.321,19.626L104.876,19.626L104.876,34.81L104.876,34.809ZM118.743,21.177L118.743,19.627L123.173,19.627L123.173,34.046C123.173,36.436 122.396,38.236 120.836,39.45C119.3,40.684 117.404,41.303 115.157,41.303C111.716,41.303 109.316,40.079 107.962,37.631L111.85,35.385C112.561,36.662 113.713,37.3 115.311,37.3C116.405,37.3 117.245,37.017 117.831,36.45C118.441,35.884 118.743,35.082 118.743,34.05L118.743,32.654C117.673,33.969 116.194,34.626 114.313,34.626C112.186,34.626 110.405,33.878 108.97,32.38C107.554,30.882 106.844,29.058 106.844,26.913C106.844,24.767 107.554,22.958 108.97,21.479C110.386,19.962 112.167,19.204 114.313,19.204C116.194,19.204 117.673,19.862 118.743,21.177ZM112.426,29.467C113.137,30.114 114.015,30.436 115.066,30.436C116.117,30.436 117.001,30.114 117.706,29.466C118.393,28.838 118.738,27.988 118.738,26.918C118.738,25.848 118.393,24.993 117.706,24.368C116.996,23.721 116.117,23.399 115.066,23.399C114.015,23.399 113.132,23.721 112.426,24.369C111.74,24.998 111.394,25.847 111.394,26.918C111.394,27.988 111.74,28.842 112.426,29.466L112.426,29.467ZM137.05,21.177L137.05,19.627L141.481,19.627L141.481,34.046C141.481,36.436 140.703,38.236 139.143,39.45C137.607,40.684 135.711,41.303 133.465,41.303C130.023,41.303 127.623,40.079 126.269,37.631L130.157,35.385C130.868,36.662 132.02,37.3 133.618,37.3C134.713,37.3 135.553,37.017 136.138,36.45C136.748,35.884 137.05,35.082 137.05,34.05L137.05,32.654C135.98,33.969 134.501,34.626 132.62,34.626C130.493,34.626 128.713,33.878 127.277,32.38C125.861,30.882 125.151,29.058 125.151,26.913C125.151,24.767 125.861,22.958 127.277,21.479C128.693,19.962 130.474,19.204 132.62,19.204C134.501,19.204 135.98,19.862 137.05,21.177ZM130.733,29.467C131.444,30.114 132.322,30.436 133.373,30.436C134.425,30.436 135.308,30.114 136.013,29.466C136.7,28.838 137.045,27.988 137.045,26.918C137.045,25.848 136.7,24.993 136.013,24.368C135.303,23.721 134.425,23.399 133.373,23.399C132.322,23.399 131.439,23.721 130.733,24.369C130.047,24.998 129.701,25.847 129.701,26.918C129.701,27.988 130.047,28.842 130.733,29.466L130.733,29.467ZM150.927,28.919L153.783,19.626L158.641,19.626L153.447,34.353C152.597,36.719 151.474,38.423 150.077,39.455C148.7,40.506 146.938,40.982 144.793,40.881L144.793,36.628C145.844,36.628 146.655,36.436 147.221,36.052C147.788,35.687 148.244,35.039 148.589,34.108L142.546,19.626L147.557,19.626L150.927,28.919ZM0,24.633C0,14.26 0,9.076 2.798,5.538C3.417,4.756 4.124,4.049 4.906,3.431C8.438,0.633 13.627,0.633 24,0.633C34.373,0.633 39.557,0.633 43.094,3.431C43.876,4.049 44.583,4.756 45.202,5.538C48,9.071 48,14.26 48,24.633C48,35.006 48,40.19 45.202,43.727C44.583,44.509 43.876,45.216 43.094,45.834C39.562,48.633 34.373,48.633 24,48.633C13.627,48.633 8.443,48.633 4.906,45.834C4.124,45.216 3.417,44.509 2.798,43.727C0,40.194 0,35.006 0,24.633Z" fill="rgb(254,80,5)" fill-rule="nonzero" transform="matrix(2.26927,0,0,2.26927,100,144.101)"/><path d="M25.815,19.66L25.815,14.687C25.813,14.366 25.55,14.103 25.229,14.102C24.909,14.104 24.646,14.367 24.644,14.687L24.644,20.529C24.644,20.86 24.913,21.124 25.239,21.124L25.81,21.124C34.11,21.124 34.973,21.556 34.455,23.308C34.431,23.394 34.402,23.476 34.373,23.568L34.359,23.62C32.179,30.191 26.285,38.414 24.543,40.766C24.428,40.922 24.245,41.015 24.051,41.015C23.857,41.015 23.674,40.922 23.559,40.766C22.508,39.345 19.935,35.774 17.588,31.722C17.429,31.352 17.352,30.489 19.958,30.489L23.146,30.489C23.324,30.489 23.468,30.633 23.468,30.81L23.468,33.383C23.468,33.69 23.693,33.973 24,33.998C24.173,34.013 24.344,33.949 24.466,33.825C24.578,33.717 24.641,33.568 24.639,33.412L24.639,29.922C24.637,29.591 24.365,29.32 24.034,29.318L17.593,29.318C16.469,29.318 15.788,28.358 15.341,27.484C13.94,24.546 12.937,21.647 12.937,19.362C12.937,13.512 17.602,8.246 24.044,8.246C29.78,8.246 34.124,12.416 35.007,17.462C35.012,17.505 35.045,17.697 35.05,17.735C35.28,20.212 28.82,19.929 26.103,19.943C26.102,19.943 26.102,19.943 26.101,19.943C25.944,19.943 25.815,19.814 25.815,19.657C25.815,19.656 25.815,19.656 25.815,19.655L25.815,19.66Z" fill="white" transform="matrix(2.26927,0,0,2.26927,100,144.101)"/></g></svg>