<svg clip-rule="evenodd" fill-rule="evenodd" stroke-linejoin="round" stroke-miterlimit="2" viewBox="0 0 560 400" xmlns="http://www.w3.org/2000/svg" xmlns:xlink="http://www.w3.org/1999/xlink"><linearGradient id="a" gradientUnits="userSpaceOnUse" x1="1317.9" x2="3287.04" y1="1475.74" y2="1475.74"><stop offset="0" stop-color="#d0232a"/><stop offset="1" stop-color="#df1f29"/></linearGradient><g transform="matrix(.0836352 0 0 .0836352 99.8009 116.356)"><path d="m1949.71 683.456c33.27 99.52 51.29 205.994 51.29 316.644 0 87.01-11.14 171.44-32.08 251.94l-344.03.02v-505.72h343.53c-5.56-21.245-11.81-42.214-18.71-62.884zm-458.73 161.854h-274.53v102.59h274.53v99h-274.53v106.2h274.53v99h-385.07v-505.76h385.07zm-501.4-14.44-278.15 323.66h278.15v97.53h-421.2v-84.53l278.15-323.66h-269.43v-97.53h412.53z" fill="#fff"/><path d="m3286.82 1727.26c-111.79 429.74-502.71 747.37-967.23 747.37-551.53 0-999.31-447.78-999.31-999.31 0-551.534 447.78-999.31 999.31-999.31 440.88 0 815.47 286.131 948.02 682.67 6.9 20.67 13.15 41.64 18.71 62.88h-343.53v505.72zm-477.94-406.73v-98.97h-385.07v505.76h385.07v-99h-274.53v-106.2h274.53v-99h-274.53v-102.59zm-501.4-14.44.05-84.53h-412.53v97.53h269.43l-278.15 323.66v84.53h421.2v-97.53h-278.15zm746.35 14.44 253.62-.04c5.2 33.47 8.71 67.18 10.52 101l-264.14 1.63zm-.5 307.77v-106.2l264.57-1.63c-1.57 36.11-5.08 72.1-10.52 107.83zm378.02-406.74h82.36l270.92 349.66v-349.66h87.37v505.71h-74.41l-278.86-359.78v359.78h-87.42zm567.11 0h374.95v79.44h-286.08v131.48h253.57v79.52h-253.57v135.8h289.67v79.47h-378.54zm441.42 0h96.12l120.65 375 124.26-376.4h75.09l124.26 376.4 120.65-375h93.2l-176.28 509.32h-76.58l-124.25-363.39-124.26 363.39h-76.58zm793.24 432.02 53.46-63.58c48.41 41.91 96.81 65.75 159.66 65.75 54.91 0 89.59-25.29 89.59-63.58v-1.44c0-36.12-20.23-55.63-114.15-77.3-107.64-26-168.33-57.8-168.33-151v-1.43c0-86.69 72.25-146.66 172.67-146.66 73.69 0 132.2 22.4 183.5 63.58l-47.68 67.19c-45.52-34-91-52-137.27-52-52 0-82.36 26.73-82.36 60v1.45c0 39 23.12 56.35 119.93 79.47 106.92 26 162.55 64.29 162.55 148.1v1.44c0 94.64-74.41 151-180.61 151-77.3-.08-150.27-26.81-210.96-80.99z" fill="url(#a)" transform="translate(-1317.9 -475.22)"/></g></svg>